<svg width="16" height="16" viewBox="0 0 16 16" fill="none" xmlns="http://www.w3.org/2000/svg">
<path d="M12.6654 10.5836C12.1427 10.0676 11.4901 10.0676 10.9707 10.5836C10.5745 10.9765 10.1783 11.3694 9.78878 11.7689C9.68224 11.8788 9.59235 11.9021 9.4625 11.8288C9.20613 11.689 8.93312 11.5758 8.68674 11.4226C7.53808 10.7001 6.57586 9.77123 5.72353 8.72578C5.30069 8.20639 4.92446 7.65037 4.66143 7.02443C4.60816 6.89791 4.61815 6.81468 4.72136 6.71147C5.11757 6.32858 5.50378 5.9357 5.89333 5.54283C6.43603 4.9968 6.43603 4.35754 5.89 3.80818C5.58036 3.49522 5.27072 3.18891 4.96108 2.87594C4.64145 2.55631 4.32516 2.23335 4.0022 1.91706C3.47948 1.40765 2.82691 1.40765 2.30751 1.92039C1.90798 2.31326 1.52509 2.71612 1.1189 3.10234C0.74267 3.45859 0.552891 3.89475 0.512938 4.40416C0.449678 5.23319 0.652775 6.01561 0.939108 6.77805C1.52509 8.35621 2.41738 9.75791 3.49945 11.0431C4.96108 12.7811 6.70571 14.1561 8.74667 15.1483C9.66559 15.5944 10.6178 15.9374 11.6533 15.994C12.3658 16.0339 12.9851 15.8541 13.4811 15.2981C13.8207 14.9186 14.2036 14.5723 14.5632 14.2094C15.0959 13.67 15.0993 13.0174 14.5699 12.4847C13.9373 11.8488 13.3014 11.2162 12.6654 10.5836Z" fill="#FE9302"/>
<path d="M12.0297 7.93104L13.2583 7.72128C13.0652 6.5926 12.5325 5.57046 11.7234 4.75807C10.8677 3.9024 9.78565 3.36303 8.59371 3.19656L8.42058 4.43179C9.34284 4.56163 10.1819 4.97782 10.8444 5.64038C11.4704 6.26631 11.8799 7.05872 12.0297 7.93104Z" fill="#FE9302"/>
<path d="M13.9507 2.59031C12.5324 1.17197 10.7378 0.276344 8.75677 0L8.58363 1.23523C10.295 1.47495 11.8465 2.25071 13.0717 3.47262C14.2337 4.63459 14.9962 6.10288 15.2725 7.71766L16.5011 7.50791C16.1781 5.63676 15.2958 3.93874 13.9507 2.59031Z" fill="#FE9302"/>
</svg>
