<svg width="598" height="162" viewBox="0 0 598 162" fill="none" xmlns="http://www.w3.org/2000/svg">
<path d="M399.057 148.08V148.032C396.705 149.28 392.961 150.768 388.737 150.768C380.625 150.768 378.081 146.736 378.081 142.224V141.84C378.081 135.696 383.697 133.728 388.161 133.728C394.113 133.728 397.473 137.232 399.057 141.504V134.688L398.961 133.728C398.433 128.4 395.169 126.192 391.377 126.192C386.673 126.192 382.161 128.544 380.433 129.888V126C384.705 125.712 387.057 125.232 391.377 125.232C397.809 125.232 403.377 127.968 403.377 135.552V145.584C403.377 147.408 403.617 148.272 404.001 150H400.977C399.825 150 399.057 149.232 399.057 148.08ZM399.057 146.976V145.968C398.625 140.208 394.689 134.736 389.073 134.736C385.041 134.736 382.449 137.52 382.449 141.84V142.224C382.449 145.44 384.177 149.28 390.321 149.28C393.585 149.28 396.657 148.224 399.057 146.976Z" fill="#131313"/>
<path d="M349.599 150H344.031C344.415 148.272 344.655 147.408 344.655 145.584V130.416C344.655 128.592 344.415 127.728 344.031 126H349.599C349.215 127.728 348.975 128.592 348.975 130.416V140.88C354.495 137.664 360.735 135.12 369.039 134.112V130.416C369.039 128.592 368.799 127.728 368.415 126H373.983C373.599 127.728 373.359 128.592 373.359 130.416V145.584C373.359 147.408 373.599 148.272 373.983 150H368.415C368.799 148.272 369.039 147.408 369.039 145.584V135.12C360.687 136.128 354.543 138.672 348.975 141.888V145.584C348.975 147.408 349.215 148.272 349.599 150Z" fill="#131313"/>
<path d="M333.807 148.08V148.032C331.455 149.28 327.711 150.768 323.487 150.768C315.375 150.768 312.831 146.736 312.831 142.224V141.84C312.831 135.696 318.447 133.728 322.911 133.728C328.863 133.728 332.223 137.232 333.807 141.504V134.688L333.711 133.728C333.183 128.4 329.919 126.192 326.127 126.192C321.423 126.192 316.911 128.544 315.183 129.888V126C319.455 125.712 321.807 125.232 326.127 125.232C332.559 125.232 338.127 127.968 338.127 135.552V145.584C338.127 147.408 338.367 148.272 338.751 150H335.727C334.575 150 333.807 149.232 333.807 148.08ZM333.807 146.976V145.968C333.375 140.208 329.439 134.736 323.823 134.736C319.791 134.736 317.199 137.52 317.199 141.84V142.224C317.199 145.44 318.927 149.28 325.071 149.28C328.335 149.28 331.407 148.224 333.807 146.976Z" fill="#131313"/>
<path d="M310.875 126V129.888C309.147 128.544 307.179 126.96 302.475 126.96H299.307V145.584C299.307 147.408 299.547 148.272 299.931 150H294.363C294.747 148.272 294.987 147.408 294.987 145.584V126.96H291.819C287.115 126.96 285.147 128.544 283.419 129.888V126H310.875Z" fill="#131313"/>
<path d="M280.276 143.712H281.428C279.028 147.936 273.989 150.768 268.181 150.768C259.877 150.768 253.253 145.056 253.253 138C253.253 130.944 259.877 125.232 268.181 125.232C272.501 125.232 274.853 125.712 279.125 126V129.888C277.397 128.544 272.885 126.192 268.181 126.192C262.229 126.192 257.812 130.704 257.812 137.472C257.812 144.432 262.517 149.472 269.957 149.472C273.941 149.472 278.26 146.928 280.276 143.712Z" fill="#131313"/>
<path d="M236.013 150.768C228.045 150.768 221.565 145.008 221.565 137.952C221.565 130.896 228.045 125.136 236.013 125.136C243.933 125.136 250.365 130.896 250.365 137.952C250.365 145.008 243.933 150.768 236.013 150.768ZM236.013 149.808C241.533 149.808 245.997 145.296 245.997 137.952C245.997 130.608 241.533 126.096 236.013 126.096C230.445 126.096 225.933 130.608 225.933 137.952C225.933 145.296 230.445 149.808 236.013 149.808Z" fill="#131313"/>
<path d="M219.609 126V129.888C217.881 128.544 215.913 126.96 211.209 126.96H208.041V145.584C208.041 147.408 208.281 148.272 208.665 150H203.097C203.481 148.272 203.721 147.408 203.721 145.584V126.96H200.553C195.849 126.96 193.881 128.544 192.153 129.888V126H219.609Z" fill="#131313"/>
<path d="M175.979 125.232C183.515 125.232 188.987 130.608 188.987 137.904C188.987 145.2 183.515 150.672 175.211 150.672C169.787 150.672 167.003 147.936 165.131 146.16V157.584C165.131 159.408 165.371 160.272 165.755 162H160.187C160.571 160.272 160.811 159.408 160.811 157.584V130.416C160.811 128.592 160.571 127.728 160.187 126L165.131 124.08V130.848C167.195 127.632 170.891 125.232 175.979 125.232ZM174.443 149.184C181.451 149.184 184.379 144.48 184.379 137.904C184.379 131.328 180.971 126.72 175.067 126.72C170.603 126.72 166.811 129.36 165.131 132.48V144.912C166.811 146.448 169.739 149.184 174.443 149.184Z" fill="#131313"/>
<path d="M141.747 150.768C133.779 150.768 127.299 145.008 127.299 137.952C127.299 130.896 133.779 125.136 141.747 125.136C149.667 125.136 156.099 130.896 156.099 137.952C156.099 145.008 149.667 150.768 141.747 150.768ZM141.747 149.808C147.267 149.808 151.731 145.296 151.731 137.952C151.731 130.608 147.267 126.096 141.747 126.096C136.179 126.096 131.667 130.608 131.667 137.952C131.667 145.296 136.179 149.808 141.747 149.808Z" fill="#131313"/>
<path d="M120.422 129.744L112.31 138.096L124.742 150H123.35C120.806 150 120.182 149.76 117.206 146.976L110.294 140.496H107.99V145.584C107.99 147.408 108.23 148.272 108.614 150H103.046C103.43 148.272 103.67 147.408 103.67 145.584V130.416C103.67 128.592 103.43 127.728 103.046 126H108.614C108.23 127.728 107.99 128.592 107.99 130.416V138.096H111.014L117.494 131.52C119.366 129.36 120.23 126.96 120.086 126H125.318C123.878 126.864 122.342 127.92 120.422 129.744Z" fill="#131313"/>
<path d="M97.1299 130.416V147.936L97.7539 150H61.5619C61.9459 148.272 62.1859 147.408 62.1859 145.584V130.416C62.1859 128.592 61.9459 127.728 61.5619 126H67.1299C66.7459 127.728 66.5059 128.592 66.5059 130.416V147.6H77.4979V130.416C77.4979 128.592 77.2579 127.728 76.8739 126H82.4419C82.0579 127.728 81.8179 128.592 81.8179 130.416V147.6H92.8099V130.416C92.8099 128.592 92.5699 127.728 92.1859 126H97.7539C97.3699 127.728 97.1299 128.592 97.1299 130.416Z" fill="#131313"/>
<path d="M51.3379 148.08V148.032C48.9859 149.28 45.2419 150.768 41.0179 150.768C32.9059 150.768 30.3619 146.736 30.3619 142.224V141.84C30.3619 135.696 35.9779 133.728 40.4419 133.728C46.3939 133.728 49.7539 137.232 51.3379 141.504V134.688L51.2419 133.728C50.7139 128.4 47.4499 126.192 43.6579 126.192C38.9539 126.192 34.4419 128.544 32.7139 129.888V126C36.9859 125.712 39.3379 125.232 43.6579 125.232C50.0899 125.232 55.6579 127.968 55.6579 135.552V145.584C55.6579 147.408 55.8979 148.272 56.2819 150H53.2579C52.1059 150 51.3379 149.232 51.3379 148.08ZM51.3379 146.976V145.968C50.9059 140.208 46.9699 134.736 41.3539 134.736C37.3219 134.736 34.7299 137.52 34.7299 141.84V142.224C34.7299 145.44 36.4579 149.28 42.6019 149.28C45.8659 149.28 48.9379 148.224 51.3379 146.976Z" fill="#131313"/>
<path d="M7.584 129.792H16.368C18 129.792 26.304 130.128 26.304 140.064C26.304 150 18 150 15.552 150H2.64C3.024 148.272 3.264 147.408 3.264 145.584V120.816C3.264 118.992 3.024 118.128 2.64 116.4H23.04V120.72L7.584 117.36V129.792ZM7.584 149.04H14.16C18.48 149.04 22.032 146.016 22.032 139.92C22.032 133.632 18.48 130.752 14.928 130.752H7.584V149.04Z" fill="#131313"/>
<path d="M541.698 85.712H542.85C540.45 89.936 535.41 92.768 529.602 92.768C521.298 92.768 514.674 87.056 514.674 80C514.674 72.944 521.298 67.232 529.602 67.232C536.226 67.232 542.754 71.504 543.186 77.504H518.658C518.658 84.512 523.602 91.136 531.042 91.136C535.554 91.136 539.682 88.928 541.698 85.712ZM518.658 76.544H538.29C536.946 70.88 532.002 68.432 528.354 68.432C523.458 68.432 519.138 71.168 518.658 76.544Z" fill="#131313"/>
<path d="M486.192 92H480.624C481.008 90.272 481.248 89.408 481.248 87.584V72.416C481.248 70.592 481.008 69.728 480.624 68H486.192C485.808 69.728 485.568 70.592 485.568 72.416V82.88C491.088 79.664 497.328 77.12 505.632 76.112V72.416C505.632 70.592 505.392 69.728 505.008 68H510.576C510.192 69.728 509.952 70.592 509.952 72.416V87.584C509.952 89.408 510.192 90.272 510.576 92H505.008C505.392 90.272 505.632 89.408 505.632 87.584V77.12C497.28 78.128 491.136 80.672 485.568 83.888V87.584C485.568 89.408 485.808 90.272 486.192 92Z" fill="#131313"/>
<path d="M462.185 92.768C454.217 92.768 447.737 87.008 447.737 79.952C447.737 72.896 454.217 67.136 462.185 67.136C470.105 67.136 476.537 72.896 476.537 79.952C476.537 87.008 470.105 92.768 462.185 92.768ZM462.185 91.808C467.705 91.808 472.169 87.296 472.169 79.952C472.169 72.608 467.705 68.096 462.185 68.096C456.617 68.096 452.105 72.608 452.105 79.952C452.105 87.296 456.617 91.808 462.185 91.808Z" fill="#131313"/>
<path d="M429.58 62.768C427.18 62.768 425.068 60.896 425.068 57.92H427.18C427.18 59.36 427.708 61.424 429.58 61.424C431.5 61.424 432.028 59.36 432.028 57.92H434.14C434.14 60.896 432.028 62.768 429.58 62.768ZM443.02 72.416V87.584C443.02 89.408 443.26 90.272 443.644 92H438.076C438.46 90.272 438.7 89.408 438.7 87.584V69.584L420.412 92H415.468C415.852 90.272 416.092 89.408 416.092 87.584V72.416C416.092 70.592 415.852 69.728 415.468 68H421.036C420.652 69.728 420.412 70.592 420.412 72.416V90.464L438.7 68H443.644C443.26 68.816 443.02 69.68 443.02 72.416Z" fill="#131313"/>
<path d="M405.244 90.08V90.032C402.892 91.28 399.148 92.768 394.924 92.768C386.812 92.768 384.268 88.736 384.268 84.224V83.84C384.268 77.696 389.884 75.728 394.348 75.728C400.3 75.728 403.66 79.232 405.244 83.504V76.688L405.148 75.728C404.62 70.4 401.356 68.192 397.564 68.192C392.86 68.192 388.348 70.544 386.62 71.888V68C390.892 67.712 393.244 67.232 397.564 67.232C403.996 67.232 409.564 69.968 409.564 77.552V87.584C409.564 89.408 409.804 90.272 410.188 92H407.164C406.012 92 405.244 91.232 405.244 90.08ZM405.244 88.976V87.968C404.812 82.208 400.876 76.736 395.26 76.736C391.228 76.736 388.636 79.52 388.636 83.84V84.224C388.636 87.44 390.364 91.28 396.508 91.28C399.772 91.28 402.844 90.224 405.244 88.976Z" fill="#131313"/>
<path d="M367.182 67.232C374.718 67.232 380.19 72.608 380.19 79.904C380.19 87.2 374.718 92.672 366.414 92.672C360.99 92.672 358.206 89.936 356.334 88.16V99.584C356.334 101.408 356.574 102.272 356.958 104H351.39C351.774 102.272 352.014 101.408 352.014 99.584V72.416C352.014 70.592 351.774 69.728 351.39 68L356.334 66.08V72.848C358.398 69.632 362.094 67.232 367.182 67.232ZM365.646 91.184C372.654 91.184 375.582 86.48 375.582 79.904C375.582 73.328 372.174 68.72 366.27 68.72C361.806 68.72 358.014 71.36 356.334 74.48V86.912C358.014 88.448 360.942 91.184 365.646 91.184Z" fill="#131313"/>
<path d="M333.471 72.416V87.584C333.471 89.408 333.711 90.272 334.095 92H328.527C328.911 90.272 329.151 89.408 329.151 87.584V69.872L318.447 92H314.175L303.279 71.84V81.824C303.279 86.528 303.759 90.272 305.583 92H300.015C301.839 90.272 302.319 86.528 302.319 81.824V78.176C302.319 73.472 301.839 69.728 300.015 68H306.111L318.255 90.32L329.151 68.096V68H334.095C333.711 69.728 333.471 70.592 333.471 72.416Z" fill="#131313"/>
<path d="M281.576 92.768C273.607 92.768 267.128 87.008 267.128 79.952C267.128 72.896 273.607 67.136 281.576 67.136C289.496 67.136 295.927 72.896 295.927 79.952C295.927 87.008 289.496 92.768 281.576 92.768ZM281.576 91.808C287.095 91.808 291.56 87.296 291.56 79.952C291.56 72.608 287.095 68.096 281.576 68.096C276.007 68.096 271.496 72.608 271.496 79.952C271.496 87.296 276.007 91.808 281.576 91.808Z" fill="#131313"/>
<path d="M238.646 92H233.078C233.462 90.272 233.702 89.408 233.702 87.584V72.416C233.702 70.592 233.462 69.728 233.078 68H238.646C238.262 69.728 238.022 70.592 238.022 72.416V82.88C243.542 79.664 249.782 77.12 258.086 76.112V72.416C258.086 70.592 257.846 69.728 257.462 68H263.03C262.646 69.728 262.406 70.592 262.406 72.416V87.584C262.406 89.408 262.646 90.272 263.03 92H257.462C257.846 90.272 258.086 89.408 258.086 87.584V77.12C249.734 78.128 243.59 80.672 238.022 83.888V87.584C238.022 89.408 238.262 90.272 238.646 92Z" fill="#131313"/>
<path d="M229.922 68V71.888C228.194 70.544 226.226 68.96 221.522 68.96H218.354V87.584C218.354 89.408 218.594 90.272 218.978 92H213.41C213.794 90.272 214.034 89.408 214.034 87.584V68.96H210.866C206.162 68.96 204.194 70.544 202.466 71.888V68H229.922Z" fill="#131313"/>
<path d="M186.291 67.232C193.827 67.232 199.299 72.608 199.299 79.904C199.299 87.2 193.827 92.672 185.523 92.672C180.099 92.672 177.315 89.936 175.443 88.16V99.584C175.443 101.408 175.683 102.272 176.067 104H170.499C170.883 102.272 171.123 101.408 171.123 99.584V72.416C171.123 70.592 170.883 69.728 170.499 68L175.443 66.08V72.848C177.507 69.632 181.203 67.232 186.291 67.232ZM184.755 91.184C191.763 91.184 194.691 86.48 194.691 79.904C194.691 73.328 191.283 68.72 185.379 68.72C180.915 68.72 177.123 71.36 175.443 74.48V86.912C177.123 88.448 180.051 91.184 184.755 91.184Z" fill="#131313"/>
<path d="M152.06 92.768C144.092 92.768 137.612 87.008 137.612 79.952C137.612 72.896 144.092 67.136 152.06 67.136C159.98 67.136 166.412 72.896 166.412 79.952C166.412 87.008 159.98 92.768 152.06 92.768ZM152.06 91.808C157.58 91.808 162.044 87.296 162.044 79.952C162.044 72.608 157.58 68.096 152.06 68.096C146.492 68.096 141.98 72.608 141.98 79.952C141.98 87.296 146.492 91.808 152.06 91.808Z" fill="#131313"/>
<path d="M120.526 67.232C128.062 67.232 133.534 72.608 133.534 79.904C133.534 87.2 128.062 92.672 119.758 92.672C114.334 92.672 111.55 89.936 109.678 88.16V99.584C109.678 101.408 109.918 102.272 110.302 104H104.734C105.118 102.272 105.358 101.408 105.358 99.584V72.416C105.358 70.592 105.118 69.728 104.734 68L109.678 66.08V72.848C111.742 69.632 115.438 67.232 120.526 67.232ZM118.99 91.184C125.998 91.184 128.926 86.48 128.926 79.904C128.926 73.328 125.518 68.72 119.614 68.72C115.15 68.72 111.358 71.36 109.678 74.48V86.912C111.358 88.448 114.286 91.184 118.99 91.184Z" fill="#131313"/>
<path d="M96.2738 68H101.602C99.8258 69.152 98.4818 70.352 97.0418 73.232L89.1218 89.072L88.8338 89.648C85.1858 96.8 80.0498 104 72.9458 104V99.68C77.3138 99.68 82.2098 98.912 86.5298 92H83.6978L73.2338 71.12C72.6098 69.872 71.9858 69.248 71.0738 68H76.8338C77.0258 69.152 77.1218 69.728 77.6498 70.832L87.4418 90.416L95.9858 73.232C97.3298 70.496 96.9938 69.152 96.2738 68Z" fill="#131313"/>
<path d="M65.1566 71.744L57.0446 80.096L69.4766 92H68.0846C65.5406 92 64.9166 91.76 61.9406 88.976L55.0286 82.496H52.7246V87.584C52.7246 89.408 52.9646 90.272 53.3486 92H47.7806C48.1646 90.272 48.4046 89.408 48.4046 87.584V72.416C48.4046 70.592 48.1646 69.728 47.7806 68H53.3486C52.9646 69.728 52.7246 70.592 52.7246 72.416V80.096H55.7486L62.2286 73.52C64.1006 71.36 64.9646 68.96 64.8206 68H70.0526C68.6126 68.864 67.0766 69.92 65.1566 71.744Z" fill="#131313"/>
<path d="M3.264 88.832V71.168C3.264 69.872 3.024 69.248 2.64 68H20.064C24.672 68 28.992 70.208 28.992 73.328C28.992 75.248 27.312 77.6 24.624 78.704C27.984 79.424 30.48 81.872 30.48 85.376C30.48 90.128 26.496 92 21.984 92H2.64C3.024 90.752 3.264 90.128 3.264 88.832ZM7.584 68.96V84.32C9.648 80.96 13.968 78.8 19.68 78.416C22.752 77.984 24.576 76.064 24.576 73.328C24.576 70.88 22.32 68.96 20.064 68.96H7.584ZM7.584 91.04H21.984C24.336 91.04 26.064 88.88 26.064 85.376C26.064 83.36 24.96 79.328 21.024 79.328H20.736C13.872 79.52 8.976 82.4 7.584 86.816V91.04Z" fill="#131313"/>
<path d="M596.442 14.416V29.584C596.442 31.408 596.682 32.272 597.066 34H591.498C591.882 32.272 592.122 31.408 592.122 29.584V11.584L573.834 34H568.89C569.274 32.272 569.514 31.408 569.514 29.584V14.416C569.514 12.592 569.274 11.728 568.89 10H574.458C574.074 11.728 573.834 12.592 573.834 14.416V32.464L592.122 10H597.066C596.682 10.816 596.442 11.68 596.442 14.416Z" fill="#131313"/>
<path d="M564.681 10V14.32L549.225 10.96V29.584C549.225 31.408 549.465 32.272 549.849 34H544.281C544.665 32.272 544.905 31.408 544.905 29.584V14.416C544.905 12.592 544.665 11.728 544.281 10H564.681Z" fill="#131313"/>
<path d="M535.821 10H541.149C539.373 11.152 538.029 12.352 536.589 15.232L528.669 31.072L528.381 31.648C524.733 38.8 519.597 46 512.493 46V41.68C516.861 41.68 521.757 40.912 526.077 34H523.245L512.781 13.12C512.157 11.872 511.533 11.248 510.621 10H516.381C516.573 11.152 516.669 11.728 517.197 12.832L526.989 32.416L535.533 15.232C536.877 12.496 536.541 11.152 535.821 10Z" fill="#131313"/>
<path d="M506.886 14.416V29.584C506.886 31.408 507.126 32.272 507.51 34H501.942C502.326 32.272 502.566 31.408 502.566 29.584V12.4H488.598V24.688C488.598 29.68 486.006 34 482.406 34H480.294C481.974 32.272 484.278 30.112 484.278 24.352V10H507.51C507.126 11.728 506.886 12.592 506.886 14.416Z" fill="#131313"/>
<path d="M477.151 27.712H478.303C475.903 31.936 470.864 34.768 465.056 34.768C456.752 34.768 450.128 29.056 450.128 22C450.128 14.944 456.752 9.23199 465.056 9.23199C469.376 9.23199 471.728 9.71199 476 10V13.888C474.272 12.544 469.76 10.192 465.056 10.192C459.104 10.192 454.688 14.704 454.688 21.472C454.688 28.432 459.392 33.472 466.832 33.472C470.816 33.472 475.135 30.928 477.151 27.712Z" fill="#131313"/>
<path d="M442.868 10H448.196C446.42 11.152 445.076 12.352 443.636 15.232L435.716 31.072L435.428 31.648C431.78 38.8 426.644 46 419.54 46V41.68C423.908 41.68 428.804 40.912 433.124 34H430.292L419.828 13.12C419.204 11.872 418.58 11.248 417.668 10H423.428C423.62 11.152 423.716 11.728 424.244 12.832L434.036 32.416L442.58 15.232C443.924 12.496 443.588 11.152 442.868 10Z" fill="#131313"/>
<path d="M402.245 27.712H403.397C400.997 31.936 395.957 34.768 390.149 34.768C381.845 34.768 375.221 29.056 375.221 22C375.221 14.944 381.845 9.23199 390.149 9.23199C396.773 9.23199 403.301 13.504 403.733 19.504H379.205C379.205 26.512 384.149 33.136 391.589 33.136C396.101 33.136 400.229 30.928 402.245 27.712ZM379.205 18.544H398.837C397.493 12.88 392.549 10.432 388.901 10.432C384.005 10.432 379.685 13.168 379.205 18.544Z" fill="#131313"/>
<path d="M370.504 14.416V29.584C370.504 31.408 370.745 32.272 371.129 34H365.56C365.944 32.272 366.185 31.408 366.185 29.584V11.584L347.897 34H342.953C343.337 32.272 343.577 31.408 343.577 29.584V14.416C343.577 12.592 343.337 11.728 342.953 10H348.521C348.137 11.728 347.897 12.592 347.897 14.416V32.464L366.185 10H371.129C370.745 10.816 370.504 11.68 370.504 14.416Z" fill="#131313"/>
<path d="M334.875 13.744L326.763 22.096L339.195 34H337.803C335.259 34 334.635 33.76 331.659 30.976L324.747 24.496H322.443V29.584C322.443 31.408 322.683 32.272 323.067 34H317.499C317.883 32.272 318.123 31.408 318.123 29.584V14.416C318.123 12.592 317.883 11.728 317.499 10H323.067C322.683 11.728 322.443 12.592 322.443 14.416V22.096H325.467L331.947 15.52C333.819 13.36 334.683 10.96 334.539 10H339.771C338.331 10.864 336.795 11.92 334.875 13.744Z" fill="#131313"/>
<path d="M312.245 27.712H313.397C310.997 31.936 305.957 34.768 300.149 34.768C291.845 34.768 285.221 29.056 285.221 22C285.221 14.944 291.845 9.23199 300.149 9.23199C304.469 9.23199 306.821 9.71199 311.093 10V13.888C309.365 12.544 304.853 10.192 300.149 10.192C294.197 10.192 289.781 14.704 289.781 21.472C289.781 28.432 294.485 33.472 301.925 33.472C305.909 33.472 310.229 30.928 312.245 27.712Z" fill="#131313"/>
<path d="M280.839 27.712H281.991C279.591 31.936 274.551 34.768 268.743 34.768C260.439 34.768 253.815 29.056 253.815 22C253.815 14.944 260.439 9.23199 268.743 9.23199C275.367 9.23199 281.895 13.504 282.327 19.504H257.799C257.799 26.512 262.743 33.136 270.183 33.136C274.695 33.136 278.823 30.928 280.839 27.712ZM257.799 18.544H277.431C276.087 12.88 271.143 10.432 267.495 10.432C262.599 10.432 258.279 13.168 257.799 18.544Z" fill="#131313"/>
<path d="M249.106 14.416V29.584C249.106 31.408 249.346 32.272 249.73 34H244.162C244.546 32.272 244.786 31.408 244.786 29.584V19.936C241.474 23.104 237.442 25.264 233.362 25.264C229.474 25.264 223.858 23.104 223.858 17.248V14.416C223.858 12.592 223.618 11.728 223.234 10H228.802C228.418 11.728 228.178 12.592 228.178 14.416V15.04C228.178 19.792 230.578 22.864 234.994 22.864C238.354 22.864 241.426 21.424 244.786 18.544V14.416C244.786 12.592 244.546 11.728 244.162 10H249.73C249.346 11.728 249.106 12.592 249.106 14.416Z" fill="#131313"/>
<path d="M217.317 14.416V29.584C217.317 31.408 217.557 32.272 217.941 34H212.373C212.757 32.272 212.997 31.408 212.997 29.584V11.584L194.709 34H189.765C190.149 32.272 190.389 31.408 190.389 29.584V14.416C190.389 12.592 190.149 11.728 189.765 10H195.333C194.949 11.728 194.709 12.592 194.709 14.416V32.464L212.997 10H217.941C217.557 10.816 217.317 11.68 217.317 14.416Z" fill="#131313"/>
<path d="M186.609 10V13.888C184.881 12.544 182.913 10.96 178.209 10.96H175.041V29.584C175.041 31.408 175.281 32.272 175.665 34H170.097C170.481 32.272 170.721 31.408 170.721 29.584V10.96H167.553C162.849 10.96 160.881 12.544 159.153 13.888V10H186.609Z" fill="#131313"/>
<path d="M156.011 27.712H157.163C154.763 31.936 149.723 34.768 143.915 34.768C135.611 34.768 128.987 29.056 128.987 22C128.987 14.944 135.611 9.23199 143.915 9.23199C148.235 9.23199 150.587 9.71199 154.859 10V13.888C153.131 12.544 148.619 10.192 143.915 10.192C137.963 10.192 133.547 14.704 133.547 21.472C133.547 28.432 138.251 33.472 145.691 33.472C149.675 33.472 153.995 30.928 156.011 27.712Z" fill="#131313"/>
<path d="M124.27 14.416V29.584C124.27 31.408 124.51 32.272 124.894 34H119.326C119.71 32.272 119.95 31.408 119.95 29.584V11.584L101.662 34H96.7181C97.1021 32.272 97.3421 31.408 97.3421 29.584V14.416C97.3421 12.592 97.1021 11.728 96.7181 10H102.286C101.902 11.728 101.662 12.592 101.662 14.416V32.464L119.95 10H124.894C124.51 10.816 124.27 11.68 124.27 14.416Z" fill="#131313"/>
<path d="M78.432 9.23202C85.968 9.23202 91.44 14.608 91.44 21.904C91.44 29.2 85.968 34.672 77.664 34.672C72.24 34.672 69.456 31.936 67.584 30.16V41.584C67.584 43.408 67.824 44.272 68.208 46H62.64C63.024 44.272 63.264 43.408 63.264 41.584V14.416C63.264 12.592 63.024 11.728 62.64 10L67.584 8.08002V14.848C69.648 11.632 73.344 9.23202 78.432 9.23202ZM76.896 33.184C83.904 33.184 86.832 28.48 86.832 21.904C86.832 15.328 83.424 10.72 77.52 10.72C73.056 10.72 69.264 13.36 67.584 16.48V28.912C69.264 30.448 72.192 33.184 76.896 33.184Z" fill="#131313"/>
<path d="M54.18 10H59.508C57.732 11.152 56.388 12.352 54.948 15.232L47.028 31.072L46.74 31.648C43.092 38.8 37.956 46 30.852 46V41.68C35.22 41.68 40.116 40.912 44.436 34H41.604L31.14 13.12C30.516 11.872 29.892 11.248 28.98 10H34.74C34.932 11.152 35.028 11.728 35.556 12.832L45.348 32.416L53.892 15.232C55.236 12.496 54.9 11.152 54.18 10Z" fill="#131313"/>
<path d="M27.984 0.399994V4.28799C26.256 2.94399 24.288 1.36 19.584 1.36H16.416V29.584C16.416 31.408 16.656 32.272 17.04 34H11.472C11.856 32.272 12.096 31.408 12.096 29.584V1.36H8.928C4.224 1.36 2.256 2.94399 0.528 4.28799V0.399994H27.984Z" fill="#131313"/>
</svg>
